{
    "asset" : {
        "generator" : "Khronos glTF Blender I/O v1.3.48",
        "version" : "2.0"
    },
    "scene" : 0,
    "scenes" : [
        {
            "name" : "Scene",
            "nodes" : [
                0,
                1,
                2,
                3,
                4,
                5,
                6
            ]
        }
    ],
    "nodes" : [
        {
            "mesh" : 0,
            "name" : "carrot"
        },
        {
            "name" : "Light-noimp",
            "rotation" : [
                0.16907575726509094,
                0.7558803558349609,
                -0.27217137813568115,
                0.570947527885437
            ],
            "translation" : [
                4.076245307922363,
                5.903861999511719,
                -1.0054539442062378
            ]
        },
        {
            "name" : "Camera-noimp",
            "rotation" : [
                0.483536034822464,
                0.33687159419059753,
                -0.20870360732078552,
                0.7804827094078064
            ],
            "translation" : [
                7.358891487121582,
                4.958309173583984,
                6.925790786743164
            ]
        },
        {
            "mesh" : 1,
            "name" : "Plane"
        },
        {
            "mesh" : 2,
            "name" : "Plane.001"
        },
        {
            "mesh" : 3,
            "name" : "Plane.002"
        },
        {
            "mesh" : 4,
            "name" : "carrot_collision-convcolonly"
        }
    ],
    "materials" : [
        {
            "doubleSided" : true,
            "emissiveFactor" : [
                0,
                0,
                0
            ],
            "name" : "Material",
            "pbrMetallicRoughness" : {
                "baseColorFactor" : [
                    0.800000011920929,
                    0.800000011920929,
                    0.800000011920929,
                    1
                ],
                "metallicFactor" : 0,
                "roughnessFactor" : 0.4000000059604645
            }
        }
    ],
    "meshes" : [
        {
            "name" : "Cube",
            "primitives" : [
                {
                    "attributes" : {
                        "POSITION" : 0,
                        "NORMAL" : 1,
                        "TEXCOORD_0" : 2
                    },
                    "indices" : 3,
                    "material" : 0
                }
            ]
        },
        {
            "name" : "Plane",
            "primitives" : [
                {
                    "attributes" : {
                        "POSITION" : 4,
                        "NORMAL" : 5,
                        "TEXCOORD_0" : 6
                    },
                    "indices" : 7
                }
            ]
        },
        {
            "name" : "Plane.001",
            "primitives" : [
                {
                    "attributes" : {
                        "POSITION" : 8,
                        "NORMAL" : 9,
                        "TEXCOORD_0" : 10
                    },
                    "indices" : 7
                }
            ]
        },
        {
            "name" : "Plane.002",
            "primitives" : [
                {
                    "attributes" : {
                        "POSITION" : 11,
                        "NORMAL" : 12,
                        "TEXCOORD_0" : 13
                    },
                    "indices" : 7
                }
            ]
        },
        {
            "name" : "Cube.001",
            "primitives" : [
                {
                    "attributes" : {
                        "POSITION" : 14,
                        "NORMAL" : 15,
                        "TEXCOORD_0" : 16
                    },
                    "indices" : 3,
                    "material" : 0
                }
            ]
        }
    ],
    "accessors" : [
        {
            "bufferView" : 0,
            "componentType" : 5126,
            "count" : 224,
            "max" : [
                0.25397855043411255,
                1.011661171913147,
                0.24786999821662903
            ],
            "min" : [
                -0.28091761469841003,
                -0.95747971534729,
                -0.2760303020477295
            ],
            "type" : "VEC3"
        },
        {
            "bufferView" : 1,
            "componentType" : 5126,
            "count" : 224,
            "type" : "VEC3"
        },
        {
            "bufferView" : 2,
            "componentType" : 5126,
            "count" : 224,
            "type" : "VEC2"
        },
        {
            "bufferView" : 3,
            "componentType" : 5123,
            "count" : 336,
            "type" : "SCALAR"
        },
        {
            "bufferView" : 4,
            "componentType" : 5126,
            "count" : 20,
            "max" : [
                -0.03445431962609291,
                -0.9003461599349976,
                0.13910093903541565
            ],
            "min" : [
                -0.3637581467628479,
                -1.505519151687622,
                -0.15819071233272552
            ],
            "type" : "VEC3"
        },
        {
            "bufferView" : 5,
            "componentType" : 5126,
            "count" : 20,
            "type" : "VEC3"
        },
        {
            "bufferView" : 6,
            "componentType" : 5126,
            "count" : 20,
            "type" : "VEC2"
        },
        {
            "bufferView" : 7,
            "componentType" : 5123,
            "count" : 30,
            "type" : "SCALAR"
        },
        {
            "bufferView" : 8,
            "componentType" : 5126,
            "count" : 20,
            "max" : [
                0.24948745965957642,
                -0.877686619758606,
                -0.054001495242118835
            ],
            "min" : [
                -0.05142386630177498,
                -1.4151686429977417,
                -0.49756911396980286
            ],
            "type" : "VEC3"
        },
        {
            "bufferView" : 9,
            "componentType" : 5126,
            "count" : 20,
            "type" : "VEC3"
        },
        {
            "bufferView" : 10,
            "componentType" : 5126,
            "count" : 20,
            "type" : "VEC2"
        },
        {
            "bufferView" : 11,
            "componentType" : 5126,
            "count" : 20,
            "max" : [
                0.28116121888160706,
                -0.871989369392395,
                0.4154534637928009
            ],
            "min" : [
                -0.03168176859617233,
                -1.4094713926315308,
                -0.037066519260406494
            ],
            "type" : "VEC3"
        },
        {
            "bufferView" : 12,
            "componentType" : 5126,
            "count" : 20,
            "type" : "VEC3"
        },
        {
            "bufferView" : 13,
            "componentType" : 5126,
            "count" : 20,
            "type" : "VEC2"
        },
        {
            "bufferView" : 14,
            "componentType" : 5126,
            "count" : 224,
            "max" : [
                0.25397855043411255,
                1.011661171913147,
                0.24786999821662903
            ],
            "min" : [
                -0.28091761469841003,
                -0.95747971534729,
                -0.2760303020477295
            ],
            "type" : "VEC3"
        },
        {
            "bufferView" : 15,
            "componentType" : 5126,
            "count" : 224,
            "type" : "VEC3"
        },
        {
            "bufferView" : 16,
            "componentType" : 5126,
            "count" : 224,
            "type" : "VEC2"
        }
    ],
    "bufferViews" : [
        {
            "buffer" : 0,
            "byteLength" : 2688,
            "byteOffset" : 0
        },
        {
            "buffer" : 0,
            "byteLength" : 2688,
            "byteOffset" : 2688
        },
        {
            "buffer" : 0,
            "byteLength" : 1792,
            "byteOffset" : 5376
        },
        {
            "buffer" : 0,
            "byteLength" : 672,
            "byteOffset" : 7168
        },
        {
            "buffer" : 0,
            "byteLength" : 240,
            "byteOffset" : 7840
        },
        {
            "buffer" : 0,
            "byteLength" : 240,
            "byteOffset" : 8080
        },
        {
            "buffer" : 0,
            "byteLength" : 160,
            "byteOffset" : 8320
        },
        {
            "buffer" : 0,
            "byteLength" : 60,
            "byteOffset" : 8480
        },
        {
            "buffer" : 0,
            "byteLength" : 240,
            "byteOffset" : 8540
        },
        {
            "buffer" : 0,
            "byteLength" : 240,
            "byteOffset" : 8780
        },
        {
            "buffer" : 0,
            "byteLength" : 160,
            "byteOffset" : 9020
        },
        {
            "buffer" : 0,
            "byteLength" : 240,
            "byteOffset" : 9180
        },
        {
            "buffer" : 0,
            "byteLength" : 240,
            "byteOffset" : 9420
        },
        {
            "buffer" : 0,
            "byteLength" : 160,
            "byteOffset" : 9660
        },
        {
            "buffer" : 0,
            "byteLength" : 2688,
            "byteOffset" : 9820
        },
        {
            "buffer" : 0,
            "byteLength" : 2688,
            "byteOffset" : 12508
        },
        {
            "buffer" : 0,
            "byteLength" : 1792,
            "byteOffset" : 15196
        }
    ],
    "buffers" : [
        {
            "byteLength" : 16988,
            "uri" : "data:application/octet-stream;base64,"
        }
    ]
}
